<svg width="45" height="45" viewBox="0 0 45 45" fill="none" xmlns="http://www.w3.org/2000/svg">
<path d="M45 27.3634V44.0001H35.355V28.4776C35.355 24.5782 33.96 21.917 30.4688 21.917C27.8038 21.917 26.2178 23.7105 25.5201 25.4453C25.2656 26.0655 25.2002 26.9287 25.2002 27.7969V44.0001H15.552C15.552 44.0001 15.6819 17.71 15.552 14.9862H25.1992V19.0988C25.1796 19.1295 25.1542 19.1627 25.1358 19.1925H25.1992V19.0988C26.4809 17.1247 28.77 14.3046 33.8936 14.3046C40.2413 14.3045 45 18.4514 45 27.3634ZM5.45953 1C2.15889 1 0 3.16496 0 6.01195C0 8.7969 2.09643 11.0276 5.33147 11.0276H5.39592C8.76048 11.0276 10.8529 8.79732 10.8529 6.01195C10.7895 3.16496 8.76048 1 5.45953 1ZM0.573018 44.0001H10.2176V14.9862H0.573018V44.0001Z" fill="white"/>
</svg>
