<?xml version="1.0" encoding="utf-8"?>
<!-- Generator: Adobe Illustrator 19.0.0, SVG Export Plug-In . SVG Version: 6.00 Build 0)  -->
<svg version="1.1" id="Layer_1" xmlns="http://www.w3.org/2000/svg" xmlns:xlink="http://www.w3.org/1999/xlink" x="0px" y="0px"
	 viewBox="0 0 612 792" style="enable-background:new 0 0 612 792;" xml:space="preserve">
<path d="M312.5,246.8h212.3v333.7c0,0,6.4,105.3-106.1,105.3S306.3,573.5,306.3,573.5h37.5c0,0,8.5,70.4,70.4,70.4
	s64.7-64.7,64.7-64.7V296.9H313L312.5,246.8z"/>
<path d="M67.7,584.4l-1-430.9l157.7,0.6c0,0,99.1,3,98,118.4s-103.9,114-103.9,114c-35.5,0.5-70.9,1-106.4,1.5
	c-1,65.6-2,131.2-2.9,196.8 M117.5,190v153.4H210c0,0,73.6,1,73.6-73.6s-80-80-80-80L117.5,190z"/>
</svg>
