<svg width="37" height="37" viewBox="0 0 37 37" fill="none" xmlns="http://www.w3.org/2000/svg">
<g clip-path="url(#clip0)">
<path d="M36.1961 25.3352C36.1401 25.0136 35.9991 24.7403 35.7743 24.5152C35.2763 24.0169 34.6978 23.9123 34.0391 24.2015C32.2716 25.0211 30.4393 25.4305 28.5436 25.4305C26.1653 25.4305 23.972 24.8447 21.9635 23.6714C19.955 22.4984 18.3645 20.9077 17.1916 18.899C16.0182 16.8904 15.4319 14.6971 15.4319 12.3188C15.4319 10.471 15.7977 8.71543 16.5286 7.05224C17.2597 5.38914 18.3163 3.93092 19.698 2.67752C20.2285 2.1796 20.3492 1.60097 20.06 0.942065C19.7868 0.283493 19.2967 -0.0297105 18.5898 0.00228523C16.1313 0.0986101 13.8014 0.649291 11.5999 1.65323C9.39854 2.65743 7.5064 3.97879 5.92358 5.61809C4.34093 7.25705 3.08744 9.19747 2.16345 11.4389C1.23971 13.6806 0.777588 16.0306 0.777588 18.4891C0.777588 20.9959 1.26774 23.3901 2.24787 25.6718C3.22826 27.9536 4.54566 29.9219 6.20082 31.577C7.85582 33.2316 9.82419 34.5492 12.1062 35.5298C14.3879 36.5097 16.7818 37 19.2883 37C22.8881 37 26.2098 36.0238 29.2546 34.0714C32.2996 32.1193 34.5774 29.5122 36.0881 26.2502C36.2167 25.9612 36.2528 25.6562 36.1961 25.3352ZM25.8806 32.432C23.7999 33.4207 21.6024 33.9146 19.2883 33.9146C17.1995 33.9146 15.2032 33.505 13.2989 32.6856C11.3949 31.8663 9.75564 30.7697 8.38168 29.3956C7.00806 28.0219 5.9116 26.3829 5.09178 24.4788C4.2723 22.5746 3.86252 20.5782 3.86252 18.4892C3.86252 15.0345 4.88697 11.9494 6.93571 9.23361C8.98429 6.51819 11.6237 4.67831 14.8534 3.71421C13.1823 6.36547 12.3466 9.23361 12.3466 12.319C12.3466 15.2437 13.0696 17.9511 14.516 20.4422C15.962 22.9326 17.9305 24.9006 20.4213 26.3474C22.9116 27.7934 25.6187 28.5165 28.5436 28.5165C29.4432 28.5165 30.3273 28.4443 31.1951 28.2995C29.7331 30.0671 27.9611 31.4446 25.8806 32.432Z" fill="white"/>
</g>
<defs>
<clipPath id="clip0">
<rect width="37" height="37" fill="white"/>
</clipPath>
</defs>
</svg>
