<svg width="49" height="49" viewBox="0 0 49 49" fill="none" xmlns="http://www.w3.org/2000/svg">
<path d="M45.7132 12.8014C43.5223 9.04765 40.5506 6.0758 36.7972 3.88518C33.0432 1.69445 28.945 0.599365 24.4996 0.599365C20.0548 0.599365 15.9552 1.69479 12.202 3.88518C8.44829 6.07569 5.47666 9.04765 3.28582 12.8014C1.09531 16.555 0 20.654 0 25.0983C0 30.4369 1.55755 35.2374 4.67342 39.5012C7.78896 43.7654 11.8138 46.716 16.7475 48.3534C17.3218 48.46 17.747 48.3851 18.0234 48.1304C18.2999 47.8754 18.438 47.5561 18.438 47.1738C18.438 47.11 18.4326 46.536 18.4219 45.4512C18.411 44.3664 18.4058 43.42 18.4058 42.6125L17.6721 42.7395C17.2043 42.8252 16.6141 42.8615 15.9016 42.8512C15.1894 42.8412 14.4501 42.7666 13.6846 42.6278C12.9188 42.4903 12.2065 42.1713 11.5472 41.6715C10.8882 41.1717 10.4204 40.5176 10.1438 39.71L9.82483 38.9759C9.6122 38.4872 9.27745 37.9443 8.82013 37.3492C8.36281 36.7535 7.90035 36.3497 7.43253 36.1371L7.20918 35.9772C7.06035 35.871 6.92225 35.7428 6.79454 35.5941C6.66694 35.4454 6.57141 35.2965 6.50761 35.1475C6.4437 34.9983 6.49666 34.876 6.66705 34.78C6.83744 34.684 7.14538 34.6374 7.59219 34.6374L8.22996 34.7327C8.65532 34.818 9.18147 35.0726 9.80907 35.4982C10.4363 35.9235 10.952 36.4763 11.3561 37.1565C11.8455 38.0287 12.4351 38.6933 13.1266 39.1506C13.8176 39.6079 14.5142 39.8362 15.2159 39.8362C15.9176 39.8362 16.5236 39.783 17.0342 39.6772C17.5443 39.5708 18.0228 39.411 18.4696 39.1984C18.661 37.773 19.1822 36.6779 20.0326 35.9124C18.8205 35.785 17.7308 35.5932 16.7628 35.3381C15.7955 35.0827 14.7958 34.6682 13.7645 34.0934C12.7327 33.5194 11.8767 32.8067 11.1963 31.9564C10.5159 31.1057 9.95745 29.9888 9.52181 28.6068C9.08594 27.2242 8.86795 25.6294 8.86795 23.8218C8.86795 21.248 9.70818 19.0578 11.3883 17.25C10.6013 15.315 10.6756 13.1459 11.6114 10.7427C12.2282 10.5511 13.1428 10.6949 14.3549 11.1732C15.5672 11.6518 16.4548 12.0617 17.0186 12.4016C17.5824 12.7414 18.0341 13.0293 18.3745 13.2629C20.3527 12.7101 22.3941 12.4337 24.4994 12.4337C26.6046 12.4337 28.6465 12.7101 30.6249 13.2629L31.8371 12.4976C32.666 11.987 33.6449 11.5191 34.7714 11.0937C35.8985 10.6685 36.7604 10.5515 37.3562 10.7431C38.3128 13.1463 38.3981 15.3154 37.6108 17.2504C39.2908 19.0582 40.1314 21.2489 40.1314 23.8221C40.1314 25.6297 39.9126 27.2296 39.4774 28.6228C39.0416 30.0162 38.4784 31.1319 37.7875 31.9724C37.0957 32.8127 36.2343 33.5199 35.203 34.0937C34.1715 34.668 33.1715 35.0826 32.2041 35.338C31.2363 35.5934 30.1465 35.7854 28.9345 35.913C30.04 36.8696 30.5928 38.3797 30.5928 40.4425V47.1729C30.5928 47.5552 30.7258 47.8744 30.9919 48.1295C31.2577 48.3842 31.6775 48.4591 32.2518 48.3524C37.1862 46.7152 41.211 43.7645 44.3265 39.5003C47.4416 35.2365 48.9997 30.436 48.9997 25.0974C48.9985 20.6537 47.9027 16.555 45.7132 12.8014Z" fill="white"/>
</svg>
