<svg width="49" height="49" viewBox="0 0 49 49" fill="none" xmlns="http://www.w3.org/2000/svg">
<path d="M31.7798 0H5.30835V49H43.6917V11.9119L31.7798 0ZM32.2583 2.7881L40.9036 11.4333H32.2583V2.7881ZM6.94168 47.3667V1.63333H30.625V13.0667H42.0583V47.3667H6.94168Z" fill="white"/>
<path d="M28.1751 30.2167C28.6259 30.2167 28.9918 29.8516 28.9918 29.4C28.9918 28.9484 28.6259 28.5833 28.1751 28.5833H14.2918C13.841 28.5833 13.4751 28.9484 13.4751 29.4C13.4751 29.8516 13.841 30.2167 14.2918 30.2167H28.1751Z" fill="white"/>
<path d="M36.3417 24.5H30.625C30.1742 24.5 29.8083 24.8651 29.8083 25.3167C29.8083 25.7683 30.1742 26.1333 30.625 26.1333H36.3417C36.7925 26.1333 37.1584 25.7683 37.1584 25.3167C37.1584 24.8651 36.7925 24.5 36.3417 24.5Z" fill="white"/>
<path d="M17.5583 25.3167C17.5583 25.7683 17.9242 26.1333 18.375 26.1333H26.5417C26.9925 26.1333 27.3583 25.7683 27.3583 25.3167C27.3583 24.8651 26.9925 24.5 26.5417 24.5H18.375C17.9242 24.5 17.5583 24.8651 17.5583 25.3167Z" fill="white"/>
<path d="M13.7119 24.7368C13.5649 24.8912 13.4751 25.1035 13.4751 25.3167C13.4751 25.529 13.5649 25.7413 13.7119 25.8883C13.8589 26.0427 14.0713 26.1333 14.2918 26.1333C14.5123 26.1333 14.7164 26.0435 14.8716 25.8965C15.0186 25.7413 15.1084 25.529 15.1084 25.3167C15.1084 25.1035 15.0186 24.8912 14.8716 24.7368C14.5694 24.4347 14.0059 24.4428 13.7119 24.7368Z" fill="white"/>
<path d="M31.6785 28.8202C31.5315 28.9745 31.4417 29.1787 31.4417 29.4C31.4417 29.6205 31.5233 29.8247 31.6785 29.9798C31.8337 30.1268 32.046 30.2167 32.2583 30.2167C32.4707 30.2167 32.683 30.1268 32.8382 29.9798C32.9933 29.8247 33.075 29.6205 33.075 29.4C33.075 29.1868 32.9852 28.9745 32.8382 28.8202C32.5278 28.518 31.9888 28.518 31.6785 28.8202Z" fill="white"/>
<path d="M35.7617 28.8202C35.6147 28.9745 35.5249 29.1787 35.5249 29.4C35.5249 29.6205 35.6066 29.8247 35.7617 29.9798C35.9169 30.1268 36.1292 30.2167 36.3416 30.2167C36.5539 30.2167 36.7662 30.1268 36.9214 29.9717C37.0766 29.8165 37.1582 29.6123 37.1582 29.4C37.1582 29.1868 37.0684 28.9745 36.9214 28.8202C36.6111 28.518 36.0721 28.518 35.7617 28.8202Z" fill="white"/>
<path d="M18.8039 32.8022C17.0154 33.7332 16.4135 35.5144 16.1938 37.3609C15.8557 37.0775 15.5176 36.7949 15.1795 36.5115C14.3792 35.8411 13.2179 36.9901 14.0248 37.6671C14.7883 38.3066 15.5527 38.9468 16.3163 39.5871C16.8537 40.0371 17.6851 39.7529 17.7104 39.0097C17.77 37.2408 17.8533 35.1371 19.6279 34.2134C20.5614 33.7275 19.7357 32.3171 18.8039 32.8022Z" fill="white"/>
<path d="M29.7715 36.0215C28.5808 35.9464 26.838 37.7814 25.9201 36.1465C25.7078 35.7675 25.1745 35.6254 24.8029 35.8533C23.6465 36.563 22.1348 37.5838 20.9188 36.2616C20.2059 35.4866 19.0527 36.6438 19.7641 37.4164C21.2912 39.0767 23.2561 38.572 24.9899 37.6312C25.3803 38.0681 25.8646 38.3874 26.4901 38.514C27.1369 38.6447 29.7772 37.5822 29.9201 37.7782C30.5343 38.6185 31.952 37.8043 31.3305 36.9542C30.9083 36.3768 30.5196 36.0689 29.7715 36.0215Z" fill="white"/>
<path d="M23.4106 19.5698L23.9611 19.1786L23.6801 18.5645C23.4253 18.0075 23.0162 17.5747 22.496 17.3133L20.7646 16.4297C21.5609 15.9209 22.1334 15.1549 22.4756 14.1422C23.0342 13.8017 23.3861 13.1965 23.3861 12.5219V11.9772C23.3861 11.4243 23.146 10.909 22.7377 10.5521C22.4462 9.00212 21.3951 7.3255 18.2134 7.3255C18.0884 7.3255 17.9659 7.3304 17.8451 7.3402C17.4179 7.37532 16.7956 7.3402 16.2632 6.9825C16.0157 6.8159 15.8891 6.68687 15.8271 6.60765C15.5682 6.27853 15.1337 6.16338 14.7458 6.32182C14.3587 6.48107 14.1317 6.86817 14.179 7.28467C14.2035 7.49455 14.2387 7.73955 14.2917 8.0066C14.3603 8.3496 14.3644 8.44842 14.362 8.47455C14.3554 8.50313 14.3081 8.6044 14.2705 8.68607C14.2133 8.80857 14.1431 8.95965 14.0606 9.16137C13.8834 9.59338 13.7544 10.0638 13.676 10.5652C13.2766 10.9229 13.0406 11.4333 13.0406 11.978V12.5228C13.0406 13.1973 13.3926 13.8025 13.9512 14.143C14.2917 15.1516 14.8618 15.916 15.6523 16.424L13.8524 17.3117C13.3518 17.5845 12.9614 18.0197 12.7237 18.5702L12.4624 19.1753L12.9981 19.5583C14.5343 20.6543 16.3367 21.2333 18.2134 21.2333C20.0835 21.2333 21.8802 20.6584 23.4106 19.5698ZM14.7131 18.7074L16.7099 17.7241C17.1337 17.5142 17.3975 17.0904 17.3975 16.6175V15.4562L16.9043 15.2431C16.1595 14.923 15.6744 14.3031 15.4187 13.3476L15.302 12.9123L14.8716 12.7784C14.7768 12.749 14.6756 12.6567 14.6756 12.5228V11.978C14.6756 11.8621 14.7532 11.7804 14.8258 11.742L15.2089 11.5379L15.2538 11.1058C15.3044 10.6199 15.4114 10.1748 15.5731 9.78122C15.6433 9.6089 15.7038 9.48068 15.7528 9.37533C15.8793 9.1042 15.9561 8.9033 15.9839 8.67708C16.58 8.92617 17.2571 9.02417 17.9765 8.96945C18.0541 8.96292 18.1333 8.95965 18.2142 8.95965C20.598 8.95965 21.0472 10.0491 21.1722 11.114L21.222 11.5411L21.6025 11.7412C21.6752 11.7796 21.7536 11.8613 21.7536 11.978V12.5228C21.7536 12.6567 21.6515 12.749 21.5576 12.7784L21.1272 12.9123L21.0105 13.3476C20.7548 14.3031 20.2689 14.9238 19.5249 15.2431L19.0317 15.4562V16.6224C19.0317 17.0879 19.2889 17.5093 19.7054 17.7225L21.6777 18.7294C19.5372 19.8801 16.8463 19.8728 14.7131 18.7074Z" fill="white"/>
</svg>
